<svg width="255" height="99" viewBox="0 0 255 99" fill="none" xmlns="http://www.w3.org/2000/svg">
<path d="M44.8897 53.3631C47.4282 52.1503 57.0849 41.5383 60.4895 37.8999C59.6962 42.4479 54.7381 51.0385 50.5733 55.1823C45.1193 63.5708 49.2842 57.7089 44.921 66.1985C42.9378 70.8475 46.111 68.523 43.8302 72.9699C43.0895 74.4142 41.9461 75.7324 41.1528 75.6987C38.3763 74.3242 37.8161 67.6134 38.0475 64.6825C39.2705 61.4147 42.3511 54.5759 44.8897 53.3631Z" fill="url(#paint0_linear_123_3852)"/>
<path d="M50.4872 42.9533C56.3577 37.4553 60.1041 29.2083 60.5008 25.8731C61.4924 28.5008 61.5998 33.7158 60.8858 36.7882C60.1719 39.8606 57.4617 42.7174 56.7345 43.2565L51.578 48.2087C49.6939 49.7921 45.2911 53.6663 42.7526 56.4962C39.5794 60.0335 38.5307 64.2834 38.8852 68.0177C39.1827 71.1508 41.0338 74.2838 42.0584 75.5977H36.7037C36.0426 74.7555 34.7601 71.7369 34.9187 66.8049C35.0774 61.8729 37.6292 57.3384 38.8852 55.6876C40.3066 53.7337 44.6168 48.4513 50.4872 42.9533Z" fill="url(#paint1_linear_123_3852)"/>
<path d="M47.3617 25.5699C49.0276 22.8209 50.2751 17.215 50.6717 14.7558C51.2667 15.3622 53.1131 19.708 53.4106 23.0432C53.7081 26.3784 53.2123 29.4104 52.7165 32.8466C52.2206 36.2829 50.2374 38.8095 48.8491 41.033C47.4608 43.2565 43.891 46.8948 41.8086 48.9162C39.7262 50.9375 36.6521 54.8791 35.2639 57.81C33.8756 60.7409 33.3798 62.9644 32.884 65.6932C32.4873 67.8762 32.8886 71.4203 33.12 72.8689C32.1283 71.7572 31.694 66.2996 31.1982 61.9537C30.8015 58.477 32.4212 52.8241 33.2806 50.4322C33.9946 46.5512 37.7429 40.4603 39.5278 37.9C41.445 34.9353 45.6957 28.3189 47.3617 25.5699Z" fill="url(#paint2_linear_123_3852)"/>
<path d="M26.5742 51.9482C25.3049 61.0846 30.4746 69.7022 33.1189 72.8689C32.524 70.6791 31.3538 65.0666 31.4332 60.1345C31.5125 55.2025 33.9783 49.1183 34.9039 46.2885C35.9947 42.9533 42.2419 33.6552 46.0101 28.0965C49.0246 23.6496 50.4063 17.2824 50.6707 14.7558L49.6791 12.7345C48.4891 18.4952 42.2011 25.0321 38.8704 28.804C36.193 31.836 33.2181 34.868 32.1273 36.5861C30.8382 38.3042 27.8435 42.8118 26.5742 51.9482Z" fill="url(#paint3_linear_123_3852)"/>
<path d="M35.5992 20.0112C37.3449 17.0997 36.999 10.4099 36.8007 7.27687C38.6848 8.79287 40.7556 11.4206 41.2515 15.3622C41.6481 18.5154 41.0531 21.6283 39.9623 23.5485C38.3427 25.7046 33.7151 30.7243 30.8394 33.6552C27.6504 36.9054 25.683 42.549 25.2863 45.1767C20.4472 46.6321 15.6675 52.0492 13.8826 54.5759L12.9902 53.4642C12.7918 51.2407 14.0809 46.3895 14.9734 44.5703C15.97 42.5389 17.6508 40.1234 18.6424 38.8096C19.4357 37.7585 21.4851 35.407 22.4106 34.3626C22.7742 33.9921 23.7989 33.0084 24.9888 32.0381C26.1788 31.0679 29.5833 27.7596 31.0377 26.1763C33.9134 23.1443 33.4176 23.6496 35.5992 20.0112Z" fill="url(#paint4_linear_123_3852)"/>
<path d="M31.1421 14.4526C32.426 12.027 32.6626 6.73783 32.5304 4.34593C34.9103 5.07361 36.2388 6.43464 36.8007 7.27685C37.0387 8.4088 37.0919 13.7451 36.8935 15.7664C36.613 18.6261 35.2307 21.0894 34.1874 22.6758C33.7558 23.3321 33.2498 23.935 32.7076 24.5033L30.0513 27.288L26.5806 30.9264L23.0108 34.0594L19.8376 37.5967C18.7468 39.0117 16.1487 42.4277 14.8795 45.1767C13.6102 47.9257 13.0893 51.8134 12.9901 53.4641C12.329 51.6786 10.9923 47.4406 10.913 44.3682C10.8336 41.2958 11.6732 39.1127 12.1029 38.4053C12.797 36.7545 14.8596 32.8466 17.5568 30.421C20.9284 27.389 22.4158 26.1762 25.4898 23.0432C28.0708 20.4127 30.3488 16.2044 31.1421 14.4526Z" fill="url(#paint5_linear_123_3852)"/>
<path d="M9.71747 27.5079C11.9604 27.3364 13.0804 28.4341 13.5676 29.5089C13.9042 30.2514 13.567 31.0843 13.086 31.7426C12.5331 32.4993 11.8808 33.5054 11.7007 34.1783C11.4873 34.976 11.2922 35.5226 11.1871 35.8569C11.1173 36.0788 11.076 36.315 10.8886 36.4529C10.8472 36.4834 10.7824 36.5074 10.7316 36.5152C9.57499 36.6933 8.58649 36.4181 7.13925 35.1889C5.9493 34.1783 5.85014 33.0665 5.75098 32.4601C5.75098 30.9105 6.54428 27.7504 9.71747 27.5079Z" fill="url(#paint6_linear_123_3852)"/>
<path d="M18.9267 56.6164C20.1166 54.0291 23.1907 54.2919 24.4798 54.494C24.1034 58.5213 25.5124 62.1848 26.0812 63.8443C26.1238 63.9686 26.0305 64.0953 25.8991 64.0953H23.7856C21.5049 64.0953 20.3149 62.9836 19.8191 62.5793C19.0258 61.6697 17.7367 59.2037 18.9267 56.6164Z" fill="url(#paint7_linear_123_3852)"/>
<path d="M19.2375 19.8091C19.2375 22.5999 17.0177 24.8624 14.2794 24.8624C11.5411 24.8624 9.32129 22.5999 9.32129 19.8091C9.32129 17.0182 11.5411 14.7558 14.2794 14.7558C17.0177 14.7558 19.2375 17.0182 19.2375 19.8091Z" fill="url(#paint8_linear_123_3852)"/>
<path d="M26.6869 10.8144C26.6869 12.0983 25.6657 13.1392 24.406 13.1392C23.1462 13.1392 22.125 12.0983 22.125 10.8144C22.125 9.53047 23.1462 8.48964 24.406 8.48964C25.6657 8.48964 26.6869 9.53047 26.6869 10.8144Z" fill="#CFD0A6"/>
<path d="M46.2097 11.0165C46.2097 11.9654 45.4549 12.7348 44.5238 12.7348C43.5927 12.7348 42.8379 11.9654 42.8379 11.0165C42.8379 10.0675 43.5927 9.29816 44.5238 9.29816C45.4549 9.29816 46.2097 10.0675 46.2097 11.0165Z" fill="#6ECF99"/>
<path d="M55.7296 34.0595C55.7296 34.6736 55.2412 35.1714 54.6387 35.1714C54.0363 35.1714 53.5479 34.6736 53.5479 34.0595C53.5479 33.4455 54.0363 32.9477 54.6387 32.9477C55.2412 32.9477 55.7296 33.4455 55.7296 34.0595Z" fill="#FABE4B"/>
<path d="M26.9729 70.4435C26.9729 71.3924 26.2181 72.1618 25.287 72.1618C24.3559 72.1618 23.6011 71.3924 23.6011 70.4435C23.6011 69.4945 24.3559 68.7252 25.287 68.7252C26.2181 68.7252 26.9729 69.4945 26.9729 70.4435Z" fill="#C22698"/>
<path d="M24.1958 50.7355C24.1958 51.517 23.5742 52.1506 22.8074 52.1506C22.0406 52.1506 21.4189 51.517 21.4189 50.7355C21.4189 49.954 22.0406 49.3204 22.8074 49.3204C23.5742 49.3204 24.1958 49.954 24.1958 50.7355Z" fill="#F7A33A"/>
<path d="M10.027 41.3363C10.027 41.9504 9.53859 42.4482 8.93611 42.4482C8.33363 42.4482 7.84521 41.9504 7.84521 41.3363C7.84521 40.7223 8.33363 40.2245 8.93611 40.2245C9.53859 40.2245 10.027 40.7223 10.027 41.3363Z" fill="#F75758"/>
<path d="M19.1499 26.2774C19.1499 26.8356 18.7059 27.2882 18.1582 27.2882C17.6105 27.2882 17.1665 26.8356 17.1665 26.2774C17.1665 25.7192 17.6105 25.2666 18.1582 25.2666C18.7059 25.2666 19.1499 25.7192 19.1499 26.2774Z" fill="url(#paint9_radial_123_3852)"/>
<path d="M30.496 0.0551686C39.5481 -0.553126 47.0097 4.04458 48.6428 5.20968C54.5925 9.45445 56.8402 12.3709 58.6543 15.3163C62.3272 21.2792 63.7397 30.1285 63.1648 35.0502L63.1401 35.2501C62.5853 39.4701 59.9559 44.9649 58.6543 47.2532C56.4218 50.8164 50.9792 57.9057 49.6306 59.6844L49.5542 59.7874C47.9507 62.0015 46.3551 67.2912 46.1599 68.9825L46.121 69.33C46.0299 70.1667 45.9374 71.1669 45.866 71.9906C45.7948 72.8111 45.6468 73.6344 45.2614 74.3623C43.9601 76.8196 41.9926 77.5292 40.9974 77.5711L40.9043 77.5732V75.6414C41.1407 75.6414 42.5418 75.3704 43.5543 73.4583C43.7598 73.0702 43.8785 72.5513 43.9416 71.8237C44.0236 70.8781 44.1344 69.6841 44.241 68.761C44.3649 67.6877 44.8816 65.74 45.534 63.8612C46.1792 62.0027 47.078 59.8537 48.0912 58.5173C49.4725 56.6955 54.8072 49.7439 56.9948 46.263C57.6147 45.1687 58.5698 43.2745 59.4283 41.1484C60.305 38.9775 61.028 36.6948 61.2463 34.826C61.5032 32.6269 61.3226 29.3999 60.611 25.9656C59.9009 22.5389 58.6944 19.0647 57.0096 16.3293C55.3355 13.6115 53.2685 10.8828 47.5209 6.78222C46.0329 5.72057 39.0227 1.41828 30.6256 1.98255C26.1834 2.28106 23.5172 2.75614 21.2094 3.63393C18.8836 4.5186 16.8034 5.85407 13.5494 8.11084C12.3401 8.94952 10.5205 10.6815 8.72724 12.8256C6.9411 14.9613 5.31451 17.3472 4.39993 19.4285L4.37862 19.477L4.35485 19.5242C3.4009 21.4079 1.61642 26.4837 1.97982 31.4469C2.46075 38.0151 3.59132 42.7026 7.10603 47.8874C8.55623 50.0266 10.1979 52.2923 11.6437 54.2915C12.971 56.1269 14.1807 57.8016 14.8585 58.877L14.987 59.084L15.0136 59.1275L15.0378 59.1726C15.5305 60.0874 16.2708 61.5971 16.9233 63.2138C17.5576 64.7855 18.1873 66.6458 18.3343 68.1936C18.4726 69.6504 18.6423 70.8528 18.7661 71.7233C18.8947 72.6278 18.9696 73.1709 19.1726 73.6446C19.6602 74.7822 20.4515 75.6414 21.7659 75.6414V77.5732L21.6524 77.5718C19.3582 77.5212 18.0914 75.9395 17.4575 74.5424L17.3973 74.4056C17.153 73.8356 17.0348 73.2254 16.9419 72.6105L16.8536 71.9953C16.7293 71.1206 16.5539 69.8806 16.4111 68.376C16.1731 65.8696 14.2626 61.8068 13.3371 60.0887C12.1472 58.1347 8.44683 53.3079 5.50708 48.9713C1.85669 43.5864 0.625807 38.6757 0.101678 32.2178L0.0531963 31.588C-0.34345 26.1709 1.57366 20.7403 2.63139 18.6515C4.6311 14.1006 9.47707 8.65037 12.3149 6.61772L12.4484 6.52358C18.9399 2.0215 21.4723 0.661562 30.496 0.0551686ZM40.9043 75.6414V77.5732H21.7659V75.6414H40.9043Z" fill="#FFFCFC"/>
<path d="M42.1308 80.3438C42.8698 80.2368 43.5524 80.7496 43.6553 81.4893C43.7582 82.2289 43.2425 82.9154 42.5034 83.0224L19.9926 86.2834C19.2536 86.3904 18.571 85.8776 18.4681 85.1379C18.3652 84.3983 18.8809 83.7118 19.62 83.6048L42.1308 80.3438Z" fill="white"/>
<path d="M39.2557 93.4405L24.2007 94.148C24.6299 95.7987 26.7363 99.0598 31.7282 98.8981C36.7201 98.7364 38.8265 95.1924 39.2557 93.4405Z" fill="#FFFDFD"/>
<path d="M39.3494 93.4635C38.9127 95.2459 36.7771 98.8311 31.7312 98.9946C26.6859 99.158 24.5453 95.8582 24.107 94.1723L24.0771 94.057L39.2509 93.3441L39.3801 93.3379L39.3494 93.4635ZM24.3262 94.2387C24.812 95.887 26.9011 98.9579 31.725 98.8016C36.5455 98.6454 38.6394 95.3031 39.1285 93.543L24.3262 94.2387Z" fill="white"/>
<path d="M42.1235 86.0087C42.8622 85.8994 43.5463 86.4102 43.6513 87.1495C43.7564 87.8889 43.2427 88.5769 42.5039 88.6862L20.5862 91.9288C19.8475 92.0381 19.1634 91.5273 19.0584 90.7879C18.9533 90.0486 19.467 89.3606 20.2058 89.2513L42.1235 86.0087Z" fill="white"/>
<path d="M100.755 53.315C98.6546 53.315 96.7646 52.955 95.0846 52.235C93.4046 51.485 92.0846 50.435 91.1246 49.085C90.1646 47.735 89.6846 46.16 89.6846 44.36H95.1746C95.2946 45.71 95.8196 46.82 96.7496 47.69C97.7096 48.56 99.0446 48.995 100.755 48.995C102.525 48.995 103.905 48.575 104.895 47.735C105.885 46.865 106.38 45.755 106.38 44.405C106.38 43.355 106.065 42.5 105.435 41.84C104.835 41.18 104.07 40.67 103.14 40.31C102.24 39.95 100.98 39.56 99.3596 39.14C97.3196 38.6 95.6546 38.06 94.3646 37.52C93.1046 36.95 92.0246 36.08 91.1246 34.91C90.2246 33.74 89.7746 32.18 89.7746 30.23C89.7746 28.43 90.2246 26.855 91.1246 25.505C92.0246 24.155 93.2846 23.12 94.9046 22.4C96.5246 21.68 98.3996 21.32 100.53 21.32C103.56 21.32 106.035 22.085 107.955 23.615C109.905 25.115 110.985 27.185 111.195 29.825H105.525C105.435 28.685 104.895 27.71 103.905 26.9C102.915 26.09 101.61 25.685 99.9896 25.685C98.5196 25.685 97.3196 26.06 96.3896 26.81C95.4596 27.56 94.9946 28.64 94.9946 30.05C94.9946 31.01 95.2796 31.805 95.8496 32.435C96.4496 33.035 97.1996 33.515 98.0996 33.875C98.9996 34.235 100.23 34.625 101.79 35.045C103.86 35.615 105.54 36.185 106.83 36.755C108.15 37.325 109.26 38.21 110.16 39.41C111.09 40.58 111.555 42.155 111.555 44.135C111.555 45.725 111.12 47.225 110.25 48.635C109.41 50.045 108.165 51.185 106.515 52.055C104.895 52.895 102.975 53.315 100.755 53.315ZM153.248 21.725V53H148.118V31.58L138.578 53H135.023L125.438 31.58V53H120.308V21.725H125.843L136.823 46.25L147.758 21.725H153.248ZM181.545 46.61H168.45L166.2 53H160.845L172.05 21.68H177.99L189.195 53H183.795L181.545 46.61ZM180.105 42.425L175.02 27.89L169.89 42.425H180.105ZM213.012 53L205.812 40.49H201.897V53H196.767V21.725H207.567C209.967 21.725 211.992 22.145 213.642 22.985C215.322 23.825 216.567 24.95 217.377 26.36C218.217 27.77 218.637 29.345 218.637 31.085C218.637 33.125 218.037 34.985 216.837 36.665C215.667 38.315 213.852 39.44 211.392 40.04L219.132 53H213.012ZM201.897 36.395H207.567C209.487 36.395 210.927 35.915 211.887 34.955C212.877 33.995 213.372 32.705 213.372 31.085C213.372 29.465 212.892 28.205 211.932 27.305C210.972 26.375 209.517 25.91 207.567 25.91H201.897V36.395ZM248.105 21.725V25.91H239.78V53H234.65V25.91H226.28V21.725H248.105Z" fill="white"/>
<path d="M87 76.86H92.02V78H85.6V64.02H87V76.86ZM104.298 78.14C103.005 78.14 101.831 77.84 100.778 77.24C99.7246 76.6267 98.8913 75.78 98.278 74.7C97.678 73.6067 97.378 72.3733 97.378 71C97.378 69.6267 97.678 68.4 98.278 67.32C98.8913 66.2267 99.7246 65.38 100.778 64.78C101.831 64.1667 103.005 63.86 104.298 63.86C105.605 63.86 106.785 64.1667 107.838 64.78C108.891 65.38 109.718 66.2267 110.318 67.32C110.918 68.4 111.218 69.6267 111.218 71C111.218 72.3733 110.918 73.6067 110.318 74.7C109.718 75.78 108.891 76.6267 107.838 77.24C106.785 77.84 105.605 78.14 104.298 78.14ZM104.298 76.92C105.338 76.92 106.271 76.68 107.098 76.2C107.925 75.72 108.578 75.0333 109.058 74.14C109.538 73.2333 109.778 72.1867 109.778 71C109.778 69.8133 109.538 68.7733 109.058 67.88C108.578 66.9867 107.925 66.3 107.098 65.82C106.271 65.34 105.338 65.1 104.298 65.1C103.258 65.1 102.325 65.34 101.498 65.82C100.671 66.3 100.018 66.9867 99.538 67.88C99.058 68.7733 98.818 69.8133 98.818 71C98.818 72.1867 99.058 73.2333 99.538 74.14C100.018 75.0333 100.671 75.72 101.498 76.2C102.325 76.68 103.258 76.92 104.298 76.92ZM128.78 68.1C128.38 67.18 127.766 66.46 126.94 65.94C126.126 65.4067 125.166 65.14 124.06 65.14C123.02 65.14 122.086 65.38 121.26 65.86C120.433 66.34 119.78 67.0267 119.3 67.92C118.82 68.8 118.58 69.8267 118.58 71C118.58 72.1733 118.82 73.2067 119.3 74.1C119.78 74.9933 120.433 75.68 121.26 76.16C122.086 76.64 123.02 76.88 124.06 76.88C125.033 76.88 125.906 76.6733 126.68 76.26C127.466 75.8333 128.093 75.2333 128.56 74.46C129.04 73.6733 129.313 72.76 129.38 71.72H123.5V70.58H130.86V71.6C130.793 72.8267 130.46 73.94 129.86 74.94C129.26 75.9267 128.453 76.7067 127.44 77.28C126.44 77.8533 125.313 78.14 124.06 78.14C122.766 78.14 121.593 77.84 120.54 77.24C119.486 76.6267 118.653 75.78 118.04 74.7C117.44 73.6067 117.14 72.3733 117.14 71C117.14 69.6267 117.44 68.4 118.04 67.32C118.653 66.2267 119.486 65.38 120.54 64.78C121.593 64.1667 122.766 63.86 124.06 63.86C125.553 63.86 126.86 64.2333 127.98 64.98C129.1 65.7267 129.913 66.7667 130.42 68.1H128.78ZM143.704 78.14C142.411 78.14 141.238 77.84 140.184 77.24C139.131 76.6267 138.298 75.78 137.684 74.7C137.084 73.6067 136.784 72.3733 136.784 71C136.784 69.6267 137.084 68.4 137.684 67.32C138.298 66.2267 139.131 65.38 140.184 64.78C141.238 64.1667 142.411 63.86 143.704 63.86C145.011 63.86 146.191 64.1667 147.244 64.78C148.298 65.38 149.124 66.2267 149.724 67.32C150.324 68.4 150.624 69.6267 150.624 71C150.624 72.3733 150.324 73.6067 149.724 74.7C149.124 75.78 148.298 76.6267 147.244 77.24C146.191 77.84 145.011 78.14 143.704 78.14ZM143.704 76.92C144.744 76.92 145.678 76.68 146.504 76.2C147.331 75.72 147.984 75.0333 148.464 74.14C148.944 73.2333 149.184 72.1867 149.184 71C149.184 69.8133 148.944 68.7733 148.464 67.88C147.984 66.9867 147.331 66.3 146.504 65.82C145.678 65.34 144.744 65.1 143.704 65.1C142.664 65.1 141.731 65.34 140.904 65.82C140.078 66.3 139.424 66.9867 138.944 67.88C138.464 68.7733 138.224 69.8133 138.224 71C138.224 72.1867 138.464 73.2333 138.944 74.14C139.424 75.0333 140.078 75.72 140.904 76.2C141.731 76.68 142.664 76.92 143.704 76.92Z" fill="white"/>
<path d="M188.26 64.2V78H186.86V66.98L181.94 78H180.92L176 67.02V78H174.6V64.2H176.08L181.42 76.16L186.76 64.2H188.26ZM204.136 74.68H197.776L196.556 78H195.076L200.176 64.2H201.756L206.836 78H205.356L204.136 74.68ZM203.716 73.52L200.956 65.96L198.196 73.52H203.716ZM221.143 78L215.083 71.54V78H213.683V64.02H215.083V70.56L221.143 64.02H222.923L216.383 71L222.983 78H221.143ZM231.05 65.16V70.38H236.35V71.54H231.05V76.84H236.95V78H229.65V64H236.95V65.16H231.05ZM251.749 78L248.289 72.16H245.709V78H244.309V64.02H248.509C250.069 64.02 251.249 64.3933 252.049 65.14C252.862 65.8867 253.269 66.8667 253.269 68.08C253.269 69.0933 252.975 69.96 252.389 70.68C251.815 71.3867 250.962 71.8467 249.829 72.06L253.429 78H251.749ZM245.709 71.02H248.529C249.622 71.02 250.442 70.7533 250.989 70.22C251.549 69.6867 251.829 68.9733 251.829 68.08C251.829 67.16 251.562 66.4533 251.029 65.96C250.495 65.4533 249.655 65.2 248.509 65.2H245.709V71.02Z" fill="white"/>
<defs>
<linearGradient id="paint0_linear_123_3852" x1="58.7046" y1="41.4372" x2="40.8284" y2="74.8123" gradientUnits="userSpaceOnUse">
<stop stop-color="#FB9246"/>
<stop offset="0.304688" stop-color="#F85C4F"/>
<stop offset="0.479688" stop-color="#F0475E"/>
<stop offset="0.694782" stop-color="#F23D66"/>
<stop offset="0.827055" stop-color="#DF1B70"/>
<stop offset="1" stop-color="#C30F73"/>
</linearGradient>
<linearGradient id="paint1_linear_123_3852" x1="59.2001" y1="27.0859" x2="36.59" y2="75.068" gradientUnits="userSpaceOnUse">
<stop offset="0.00887806" stop-color="#FAC459"/>
<stop offset="0.35504" stop-color="#FCA958"/>
<stop offset="0.582886" stop-color="#F87068"/>
<stop offset="0.763762" stop-color="#E4386F"/>
<stop offset="1" stop-color="#CA187B"/>
</linearGradient>
<linearGradient id="paint2_linear_123_3852" x1="50.7709" y1="15.3622" x2="32.7031" y2="72.5735" gradientUnits="userSpaceOnUse">
<stop stop-color="#CBE6A6"/>
<stop offset="0.148848" stop-color="#91D699"/>
<stop offset="0.294847" stop-color="#64CAAA"/>
<stop offset="0.455929" stop-color="#36BDBD"/>
<stop offset="0.595595" stop-color="#19AACC"/>
<stop offset="0.751009" stop-color="#158EC5"/>
<stop offset="0.995907" stop-color="#216BAF"/>
</linearGradient>
<linearGradient id="paint3_linear_123_3852" x1="49.9776" y1="12.7345" x2="31.9068" y2="71.5673" gradientUnits="userSpaceOnUse">
<stop stop-color="#65CB80"/>
<stop offset="0.181369" stop-color="#2DB986"/>
<stop offset="0.309725" stop-color="#1BAE92"/>
<stop offset="0.48369" stop-color="#0B9FAC"/>
<stop offset="0.609965" stop-color="#0B8AC0"/>
<stop offset="0.716038" stop-color="#156DB6"/>
<stop offset="0.875667" stop-color="#2155AB"/>
<stop offset="1" stop-color="#285CB3"/>
</linearGradient>
<linearGradient id="paint4_linear_123_3852" x1="37.285" y1="8.0854" x2="13.1735" y2="53.6957" gradientUnits="userSpaceOnUse">
<stop stop-color="#FB7D5E"/>
<stop offset="0.204441" stop-color="#FA6268"/>
<stop offset="0.352822" stop-color="#EC3D6C"/>
<stop offset="0.523187" stop-color="#C8378C"/>
<stop offset="0.711378" stop-color="#A638A8"/>
<stop offset="0.834156" stop-color="#9136B0"/>
<stop offset="1" stop-color="#6A34AC"/>
</linearGradient>
<linearGradient id="paint5_linear_123_3852" x1="33.2193" y1="4.64913" x2="12.2298" y2="52.5681" gradientUnits="userSpaceOnUse">
<stop stop-color="#FAA762"/>
<stop offset="0.24758" stop-color="#FC8F67"/>
<stop offset="0.415364" stop-color="#FB7372"/>
<stop offset="0.605746" stop-color="#EA528A"/>
<stop offset="0.795549" stop-color="#CA3EA9"/>
<stop offset="1" stop-color="#9938B5"/>
</linearGradient>
<linearGradient id="paint6_linear_123_3852" x1="9.81664" y1="27.4901" x2="9.81664" y2="36.5644" gradientUnits="userSpaceOnUse">
<stop stop-color="#BE4DB0"/>
<stop offset="0.482935" stop-color="#AD4AAF"/>
<stop offset="1" stop-color="#543AAB"/>
</linearGradient>
<linearGradient id="paint7_linear_123_3852" x1="22.3049" y1="54.3738" x2="22.3049" y2="64.0953" gradientUnits="userSpaceOnUse">
<stop stop-color="#F99049"/>
<stop offset="0.274008" stop-color="#F86449"/>
<stop offset="0.631214" stop-color="#F23D5B"/>
<stop offset="1" stop-color="#EC2579"/>
</linearGradient>
<linearGradient id="paint8_linear_123_3852" x1="14.2794" y1="14.7558" x2="14.2794" y2="24.8624" gradientUnits="userSpaceOnUse">
<stop stop-color="#EFC04A"/>
<stop offset="1" stop-color="#F97159"/>
</linearGradient>
<radialGradient id="paint9_radial_123_3852" cx="0" cy="0" r="1" gradientUnits="userSpaceOnUse" gradientTransform="translate(18.1582 26.2774) rotate(90) scale(1.4702 1.44251)">
<stop stop-color="#FFB687"/>
<stop offset="1" stop-color="#C7655E"/>
</radialGradient>
</defs>
</svg>
